<?xml version="1.0" encoding="UTF-8"?>
<svg xmlns="http://www.w3.org/2000/svg" style="stroke-dasharray:none; shape-rendering:auto; font-family:'Arial'; text-rendering:auto; fill-opacity:1; color-interpolation:auto; color-rendering:auto; font-size:12; fill:black; stroke:black; image-rendering:auto; stroke-miterlimit:10; stroke-linecap:square; stroke-linejoin:miter; font-style:normal; stroke-width:1; stroke-dashoffset:0; font-weight:normal; stroke-opacity:1;" contentScriptType="text/ecmascript" preserveAspectRatio="xMidYMid meet" zoomAndPan="magnify" version="1.0" contentStyleType="text/css" xml:xlink="http://www.w3.org/1999/xlink" width="811" height="454"><rect x="0" y="0" width="811" height="150" ry="0" rx="0" style="stroke:#000000; fill:#9FC1C6" /><g componentSequence="2"><text x="-75" y="7" transform="rotate(270)" text-anchor="middle" style="font-weight:bold;font-size:10px;stroke:none; fill:#434343"><tspan dy="14" x="-75">Gerência</tspan></text></g><rect x="0" y="152" width="811" height="150" ry="0" rx="0" style="stroke:#000000; fill:#82B0B7" /><g componentSequence="3"><text x="-227" y="7" transform="rotate(270)" text-anchor="middle" style="font-weight:bold;font-size:10px;stroke:none; fill:#434343"><tspan dy="14" x="-227">Secretaria Executiva</tspan></text></g><rect x="0" y="304" width="811" height="150" ry="0" rx="0" style="stroke:#000000; fill:#ADC9AC" /><g componentSequence="1"><text x="-379" y="7" transform="rotate(270)" text-anchor="middle" style="font-weight:bold;font-size:10px;stroke:none; fill:#434343"><tspan dy="14" x="-379">Diretoria</tspan></text></g><g sequence="4"><ellipse cx="97" cy="58" rx="17" ry="17" stroke-width="1" style="fill:url(#linearGradient66FF6696FF96B6FFB6_1784805612);" stroke="336633" /></g><g sequence="5"><rect x="40" y="183" width="106" height="84" ry="5" rx="5" style="fill:url(#linearGradientF8FBFEEDF5FCDEEDFAD4E7F8E2E5E9_1688603600);" stroke="191970" /></g><g componentSequence="5"><text x="93" y="198" text-anchor="middle" style="font-weight:bold;font-size:10px;stroke:none; fill:#333399"><tspan dy="14" x="93">Análise da</tspan><tspan dy="14" x="93">Secretaria</tspan><tspan dy="14" x="93">executiva</tspan></text></g><g sequence="7"><polygon points=" 460 205 490 175 520 205 490 235 460 205" style="fill:url(#linearGradientFAFBFCFFFFCC_1620677532);" stroke="000000" /></g><g componentSequence="7"><text x="490" y="238" text-anchor="middle" style="font-weight:bold;font-size:10px;stroke:none; fill:#333399"><tspan dy="14" x="490">Atribuir?</tspan></text></g><g sequence="9"><rect x="90" y="330" width="106" height="70" ry="5" rx="5" style="fill:url(#linearGradientF8FBFEEDF5FCDEEDFAD4E7F8E2E5E9_630915563);" stroke="191970" /></g><g componentSequence="9"><text x="143" y="345" text-anchor="middle" style="font-weight:bold;font-size:10px;stroke:none; fill:#333399"><tspan dy="14" x="143">Despacho com a</tspan><tspan dy="14" x="143">Diretoria</tspan></text></g><g sequence="14"><polygon points=" 710 357 740 327 770 357 740 387 710 357" style="fill:url(#linearGradientFAFBFCFFFFCC_1079520044);" stroke="000000" /></g><g componentSequence="14"><text x="740" y="397" text-anchor="middle" style="font-weight:bold;font-size:10px;stroke:none; fill:#333399"><tspan dy="14" x="740">Realizad</tspan><tspan dy="14" x="740">o?</tspan></text></g><g sequence="17"><ellipse cx="737" cy="238" rx="17" ry="17" stroke-width="3" style="fill:url(#linearGradientFF6666FF9696FFB6B6_343163004);" stroke="993333" /></g><g componentSequence="6"><text x="152" y="126" style="font-size:10px;font-weight:none;stroke:none; fill:#333399" text-anchor="left" /></g><g componentSequence="8"><text x="313" y="187" style="font-size:10px;font-weight:none;stroke:none; fill:#333399" text-anchor="left" /></g><g componentSequence="10"><text x="316" y="226" style="font-size:10px;font-weight:none;stroke:none; fill:#333399" text-anchor="left"><tspan dy="14" x="316">Sim</tspan></text></g><g componentSequence="13"><text x="371" y="58" style="font-size:10px;font-weight:none;stroke:none; fill:#333399" text-anchor="left"><tspan dy="14" x="371">Corrigir</tspan></text></g><g componentSequence="15"><text x="463" y="372" style="font-size:10px;font-weight:none;stroke:none; fill:#333399" text-anchor="left" /></g><g componentSequence="16"><text x="426" y="354" style="font-size:10px;font-weight:none;stroke:none; fill:#333399" text-anchor="left"><tspan dy="14" x="426">Não</tspan></text></g><g componentSequence="18"><text x="632" y="188" style="font-size:10px;font-weight:none;stroke:none; fill:#333399" text-anchor="left"><tspan dy="14" x="632">Não</tspan></text></g><g componentSequence="19"><text x="699" y="285" style="font-size:10px;font-weight:none;stroke:none; fill:#333399" text-anchor="left"><tspan dy="14" x="699">Sim</tspan></text></g><path style="fill:none; stroke:#000000;stroke-width:1" d="M108.0 71.0 L146.0 118.0 L114.0 182.0" /><polygon style="fill:#000000; stroke:#000000;" points=" 123 175 114 182 114 171 118 175" /><path style="fill:none; stroke:#000000;stroke-width:1" d="M490.0 174.0 L490.0 58.0 L115.0 58.0" /><polygon style="fill:#000000; stroke:#000000;" points=" 125 63 115 58 125 53 123 58" /><path style="fill:none; stroke:#000000;stroke-width:1" d="M146.0 215.0 L343.0 180.0 L459.0 210.0" /><polygon style="fill:#000000; stroke:#000000;" points=" 451 203 459 210 448 212 451 208" /><path style="fill:none; stroke:#000000;stroke-width:1" d="M709.0 375.0 L310.0 346.0 L146.0 254.0" /><polygon style="fill:#000000; stroke:#000000;" points=" 152 263 146 254 157 255 153 258" /><path style="fill:none; stroke:#000000;stroke-width:1" d="M459.0 217.0 L327.0 208.0 L184.0 329.0" /><polygon style="fill:#000000; stroke:#000000;" points=" 195 326 184 329 188 319 190 324" /><path style="fill:none; stroke:#000000;stroke-width:1" d="M520.0 210.0 L612.0 184.0 L721.0 231.0" /><polygon style="fill:#000000; stroke:#000000;" points=" 714 222 721 231 710 232 714 228" /><path style="fill:none; stroke:#000000;stroke-width:1" d="M196.0 366.0 L709.0 377.0" /><polygon style="fill:#000000; stroke:#000000;" points=" 699 372 709 377 699 382 701 377" /><path style="fill:none; stroke:#000000;stroke-width:1" d="M711.0 326.0 L687.0 281.0 L724.0 249.0" /><polygon style="fill:#000000; stroke:#000000;" points=" 713 252 724 249 720 259 718 254" /><defs><linearGradient xmlns:xlink="http://www.w3.org/1999/xlink" xlink:href="#linearGradient66FF6696FF96B6FFB6" id="linearGradient66FF6696FF96B6FFB6_1784805612" x1="0" y1="41.0" x2="0" y2="76.0" gradientUnits="userSpaceOnUse" xlink:type="simple" xlink:actuate="onLoad" xlink:show="other" /><linearGradient id="linearGradient66FF6696FF96B6FFB6"><stop style="stop-color:#66FF66;stop-opacity:1;" offset="0.0" id="stop66FF66" /><stop style="stop-color:#96FF96;stop-opacity:1;" offset="0.5" id="stop96FF96" /><stop style="stop-color:#B6FFB6;stop-opacity:1;" offset="1.0" id="stopB6FFB6" /></linearGradient><linearGradient xmlns:xlink="http://www.w3.org/1999/xlink" xlink:href="#linearGradientF8FBFEEDF5FCDEEDFAD4E7F8E2E5E9" id="linearGradientF8FBFEEDF5FCDEEDFAD4E7F8E2E5E9_1688603600" x1="0" y1="183.0" x2="0" y2="289.0" gradientUnits="userSpaceOnUse" xlink:type="simple" xlink:actuate="onLoad" xlink:show="other" /><linearGradient id="linearGradientF8FBFEEDF5FCDEEDFAD4E7F8E2E5E9"><stop style="stop-color:#F8FBFE;stop-opacity:1;" offset="0.0" id="stopF8FBFE" /><stop style="stop-color:#EDF5FC;stop-opacity:1;" offset="0.25" id="stopEDF5FC" /><stop style="stop-color:#DEEDFA;stop-opacity:1;" offset="0.5" id="stopDEEDFA" /><stop style="stop-color:#D4E7F8;stop-opacity:1;" offset="0.75" id="stopD4E7F8" /><stop style="stop-color:#E2E5E9;stop-opacity:1;" offset="1.0" id="stopE2E5E9" /></linearGradient><linearGradient xmlns:xlink="http://www.w3.org/1999/xlink" xlink:href="#linearGradientFAFBFCFFFFCC" id="linearGradientFAFBFCFFFFCC_1620677532" x1="0" y1="175.0" x2="0" y2="235.0" gradientUnits="userSpaceOnUse" xlink:type="simple" xlink:actuate="onLoad" xlink:show="other" /><linearGradient id="linearGradientFAFBFCFFFFCC"><stop style="stop-color:#FAFBFC;stop-opacity:1;" offset="0.0" id="stopFAFBFC" /><stop style="stop-color:#FFFFCC;stop-opacity:1;" offset="1.0" id="stopFFFFCC" /></linearGradient><linearGradient xmlns:xlink="http://www.w3.org/1999/xlink" xlink:href="#linearGradientF8FBFEEDF5FCDEEDFAD4E7F8E2E5E9" id="linearGradientF8FBFEEDF5FCDEEDFAD4E7F8E2E5E9_630915563" x1="0" y1="330.0" x2="0" y2="436.0" gradientUnits="userSpaceOnUse" xlink:type="simple" xlink:actuate="onLoad" xlink:show="other" /><linearGradient xmlns:xlink="http://www.w3.org/1999/xlink" xlink:href="#linearGradientFAFBFCFFFFCC" id="linearGradientFAFBFCFFFFCC_1079520044" x1="0" y1="327.0" x2="0" y2="387.0" gradientUnits="userSpaceOnUse" xlink:type="simple" xlink:actuate="onLoad" xlink:show="other" /><linearGradient xmlns:xlink="http://www.w3.org/1999/xlink" xlink:href="#linearGradientFF6666FF9696FFB6B6" id="linearGradientFF6666FF9696FFB6B6_343163004" x1="0" y1="221.0" x2="0" y2="256.0" gradientUnits="userSpaceOnUse" xlink:type="simple" xlink:actuate="onLoad" xlink:show="other" /><linearGradient id="linearGradientFF6666FF9696FFB6B6"><stop style="stop-color:#FF6666;stop-opacity:1;" offset="0.0" id="stopFF6666" /><stop style="stop-color:#FF9696;stop-opacity:1;" offset="0.5" id="stopFF9696" /><stop style="stop-color:#FFB6B6;stop-opacity:1;" offset="1.0" id="stopFFB6B6" /></linearGradient></defs></svg>
