<?xml version="1.0" encoding="UTF-8"?>
<svg xmlns="http://www.w3.org/2000/svg" style="stroke-dasharray:none; shape-rendering:auto; font-family:'Arial'; text-rendering:auto; fill-opacity:1; color-interpolation:auto; color-rendering:auto; font-size:12; fill:black; stroke:black; image-rendering:auto; stroke-miterlimit:10; stroke-linecap:square; stroke-linejoin:miter; font-style:normal; stroke-width:1; stroke-dashoffset:0; font-weight:normal; stroke-opacity:1;" contentScriptType="text/ecmascript" preserveAspectRatio="xMidYMid meet" zoomAndPan="magnify" version="1.0" contentStyleType="text/css" xml:xlink="http://www.w3.org/1999/xlink" width="811" height="454"><rect x="0" y="0" width="811" height="150" ry="0" rx="0" style="stroke:#000000; fill:#9FC1C6" /><g componentSequence="2"><text x="-75" y="7" transform="rotate(270)" text-anchor="middle" style="font-weight:bold;font-size:10px;stroke:none; fill:#434343"><tspan dy="14" x="-75">Gerência</tspan></text></g><rect x="0" y="152" width="811" height="153" ry="0" rx="0" style="stroke:#000000; fill:#82B0B7" /><g componentSequence="3"><text x="-228" y="7" transform="rotate(270)" text-anchor="middle" style="font-weight:bold;font-size:10px;stroke:none; fill:#434343"><tspan dy="14" x="-228">Secretaria Executiva</tspan></text></g><rect x="0" y="304" width="811" height="150" ry="0" rx="0" style="stroke:#000000; fill:#ADC9AC" /><g componentSequence="1"><text x="-379" y="7" transform="rotate(270)" text-anchor="middle" style="font-weight:bold;font-size:10px;stroke:none; fill:#434343"><tspan dy="14" x="-379">Diretoria</tspan></text></g><g sequence="4"><ellipse cx="47" cy="59" rx="17" ry="17" stroke-width="1" style="fill:url(#linearGradient66FF6696FF96B6FFB6_1041000768);" stroke="336633" /></g><g sequence="5"><rect x="40" y="180" width="106" height="84" ry="5" rx="5" style="fill:url(#linearGradientF8FBFEEDF5FCDEEDFAD4E7F8E2E5E9_818643185);" stroke="191970" /></g><g componentSequence="5"><text x="93" y="195" text-anchor="middle" style="font-weight:bold;font-size:10px;stroke:none; fill:#333399"><tspan dy="14" x="93">Análise da</tspan><tspan dy="14" x="93">Secretaria</tspan><tspan dy="14" x="93">executiva</tspan></text></g><g sequence="7"><polygon points=" 310 210 340 180 370 210 340 240 310 210" style="fill:url(#linearGradientFAFBFCFFFFCC_888406576);" stroke="000000" /></g><g componentSequence="7"><text x="340" y="243" text-anchor="middle" style="font-weight:bold;font-size:10px;stroke:none; fill:#333399"><tspan dy="14" x="340">Atribuir?</tspan></text></g><g sequence="9"><rect x="290" y="330" width="106" height="70" ry="5" rx="5" style="fill:url(#linearGradientF8FBFEEDF5FCDEEDFAD4E7F8E2E5E9_1911982794);" stroke="191970" /></g><g componentSequence="9"><text x="343" y="345" text-anchor="middle" style="font-weight:bold;font-size:10px;stroke:none; fill:#333399"><tspan dy="14" x="343">Despacho com a</tspan><tspan dy="14" x="343">Diretoria</tspan></text></g><g sequence="14"><polygon points=" 740 340 770 310 800 340 770 370 740 340" style="fill:url(#linearGradientFAFBFCFFFFCC_745384925);" stroke="000000" /></g><g componentSequence="14"><text x="770" y="380" text-anchor="middle" style="font-weight:bold;font-size:10px;stroke:none; fill:#333399"><tspan dy="14" x="770">Realizad</tspan><tspan dy="14" x="770">o?</tspan></text></g><g sequence="17"><ellipse cx="767" cy="58" rx="17" ry="17" stroke-width="3" style="fill:url(#linearGradientFF6666FF9696FFB6B6_1087208105);" stroke="993333" /></g><g sequence="20"><rect x="140" y="30" width="106" height="56" ry="5" rx="5" style="fill:url(#linearGradientF8FBFEEDF5FCDEEDFAD4E7F8E2E5E9_1421608194);" stroke="191970" /></g><g componentSequence="20"><text x="193" y="47" text-anchor="middle" style="font-weight:bold;font-size:10px;stroke:none; fill:#333399"><tspan dy="14" x="193">Ajustar</tspan></text></g><g sequence="23"><rect x="440" y="190" width="106" height="56" ry="5" rx="5" style="fill:url(#linearGradientF8FBFEEDF5FCDEEDFAD4E7F8E2E5E9_299464069);" stroke="191970" /></g><g componentSequence="23"><text x="493" y="207" text-anchor="middle" style="font-weight:bold;font-size:10px;stroke:none; fill:#333399"><tspan dy="14" x="493">Criar Despacho</tspan></text></g><g sequence="24"><polygon points=" 460 340 490 310 520 340 490 370 460 340" style="fill:url(#linearGradientFAFBFCFFFFCC_1345001248);" stroke="000000" /></g><g componentSequence="24"><text x="490" y="380" text-anchor="middle" style="font-weight:bold;font-size:10px;stroke:none; fill:#333399"><tspan dy="14" x="490">Devolutiv</tspan><tspan dy="14" x="490">a?</tspan></text></g><g sequence="28"><polygon points=" 650 217 680 187 710 217 680 247 650 217" style="fill:url(#linearGradientFAFBFCFFFFCC_2073573310);" stroke="000000" /></g><g componentSequence="28"><text x="680" y="250" text-anchor="middle" style="font-weight:bold;font-size:10px;stroke:none; fill:#333399"><tspan dy="14" x="680">Criado?</tspan></text></g><g componentSequence="6"><text x="103" y="105" style="font-size:10px;font-weight:none;stroke:none; fill:#333399" text-anchor="left" /></g><g componentSequence="8"><text x="238" y="223" style="font-size:10px;font-weight:none;stroke:none; fill:#333399" text-anchor="left" /></g><g componentSequence="10"><text x="350" y="273" style="font-size:10px;font-weight:none;stroke:none; fill:#333399" text-anchor="left"><tspan dy="14" x="350">Sim</tspan></text></g><g componentSequence="16"><text x="750" y="420" style="font-size:10px;font-weight:none;stroke:none; fill:#333399" text-anchor="left"><tspan dy="14" x="750">Não</tspan></text></g><g componentSequence="18"><text x="350" y="160" style="font-size:10px;font-weight:none;stroke:none; fill:#333399" text-anchor="left"><tspan dy="14" x="350">Não - Finalizar</tspan></text></g><g componentSequence="19"><text x="780" y="280" style="font-size:10px;font-weight:none;stroke:none; fill:#333399" text-anchor="left"><tspan dy="14" x="780">Sim</tspan></text></g><g componentSequence="21"><text x="260" y="160" style="font-size:10px;font-weight:none;stroke:none; fill:#333399" text-anchor="left"><tspan dy="14" x="260">Não - Corrigir</tspan></text></g><g componentSequence="22"><text x="103" y="96" style="font-size:10px;font-weight:none;stroke:none; fill:#333399" text-anchor="left" /></g><g componentSequence="25"><text x="502" y="278" style="font-size:10px;font-weight:none;stroke:none; fill:#333399" text-anchor="left" /></g><g componentSequence="26"><text x="640" y="361" style="font-size:10px;font-weight:none;stroke:none; fill:#333399" text-anchor="left" /></g><g componentSequence="27"><text x="438" y="362" style="font-size:10px;font-weight:none;stroke:none; fill:#333399" text-anchor="left" /></g><g componentSequence="29"><text x="607" y="241" style="font-size:10px;font-weight:none;stroke:none; fill:#333399" text-anchor="left" /></g><g componentSequence="30"><text x="720" y="216" style="font-size:10px;font-weight:none;stroke:none; fill:#333399" text-anchor="left"><tspan dy="14" x="720">Sim</tspan></text></g><g componentSequence="31"><text x="586" y="192" style="font-size:10px;font-weight:none;stroke:none; fill:#333399" text-anchor="left"><tspan dy="14" x="586">Não</tspan></text></g><path style="fill:none; stroke:#000000;stroke-width:1" d="M65.0 59.0 L93.0 59.0 L93.0 179.0" /><polygon style="fill:#000000; stroke:#000000;" points=" 98 169 93 179 88 169 93 171" /><path style="fill:none; stroke:#000000;stroke-width:1" d="M146.0 222.0 L309.0 223.0" /><polygon style="fill:#000000; stroke:#000000;" points=" 299 218 309 223 299 228 301 223" /><path style="fill:none; stroke:#000000;stroke-width:1" d="M744.0 412.0 L736.0 429.0 L93.0 429.0 L93.0 264.0" /><polygon style="fill:#000000; stroke:#000000;" points=" 88 274 93 264 98 274 93 272" /><path style="fill:none; stroke:#000000;stroke-width:1" d="M139.0 58.0 L93.0 58.0 L93.0 179.0" /><polygon style="fill:#000000; stroke:#000000;" points=" 98 169 93 179 88 169 93 171" /><path style="fill:none; stroke:#000000;stroke-width:1" d="M341.0 268.0 L342.0 329.0" /><polygon style="fill:#000000; stroke:#000000;" points=" 347 319 342 329 337 319 342 321" /><path style="fill:none; stroke:#000000;stroke-width:1" d="M340.0 179.0 L342.0 60.0 L750.0 58.0" /><polygon style="fill:#000000; stroke:#000000;" points=" 740 53 750 58 740 63 742 58" /><path style="fill:none; stroke:#000000;stroke-width:1" d="M340.0 179.0 L340.0 58.0 L246.0 58.0" /><polygon style="fill:#000000; stroke:#000000;" points=" 256 63 246 58 256 53 254 58" /><path style="fill:none; stroke:#000000;stroke-width:1" d="M396.0 363.0 L459.0 361.0" /><polygon style="fill:#000000; stroke:#000000;" points=" 449 356 459 361 449 366 451 361" /><path style="fill:none; stroke:#000000;stroke-width:1" d="M769.0 309.0 L767.0 75.0" /><polygon style="fill:#000000; stroke:#000000;" points=" 762 85 767 75 772 85 767 83" /><path style="fill:none; stroke:#000000;stroke-width:1" d="M520.0 361.0 L739.0 361.0" /><polygon style="fill:#000000; stroke:#000000;" points=" 729 356 739 361 729 366 731 361" /><path style="fill:none; stroke:#000000;stroke-width:1" d="M710.0 230.0 L767.0 230.0 L767.0 76.0" /><polygon style="fill:#000000; stroke:#000000;" points=" 762 86 767 76 772 86 767 84" /><path style="fill:none; stroke:#000000;stroke-width:1" d="M546.0 229.0 L599.0 241.0 L649.0 234.0" /><polygon style="fill:#000000; stroke:#000000;" points=" 638 230 649 234 640 240 641 235" /><path style="fill:none; stroke:#000000;stroke-width:1" d="M491.0 309.0 L492.0 246.0" /><polygon style="fill:#000000; stroke:#000000;" points=" 487 256 492 246 497 256 492 254" /><path style="fill:none; stroke:#000000;stroke-width:1" d="M649.0 222.0 L592.0 206.0 L546.0 211.0" /><polygon style="fill:#000000; stroke:#000000;" points=" 556 215 546 211 555 205 554 210" /><defs><linearGradient xmlns:xlink="http://www.w3.org/1999/xlink" xlink:href="#linearGradient66FF6696FF96B6FFB6" id="linearGradient66FF6696FF96B6FFB6_1041000768" x1="0" y1="42.0" x2="0" y2="77.0" gradientUnits="userSpaceOnUse" xlink:type="simple" xlink:actuate="onLoad" xlink:show="other" /><linearGradient id="linearGradient66FF6696FF96B6FFB6"><stop style="stop-color:#66FF66;stop-opacity:1;" offset="0.0" id="stop66FF66" /><stop style="stop-color:#96FF96;stop-opacity:1;" offset="0.5" id="stop96FF96" /><stop style="stop-color:#B6FFB6;stop-opacity:1;" offset="1.0" id="stopB6FFB6" /></linearGradient><linearGradient xmlns:xlink="http://www.w3.org/1999/xlink" xlink:href="#linearGradientF8FBFEEDF5FCDEEDFAD4E7F8E2E5E9" id="linearGradientF8FBFEEDF5FCDEEDFAD4E7F8E2E5E9_818643185" x1="0" y1="180.0" x2="0" y2="286.0" gradientUnits="userSpaceOnUse" xlink:type="simple" xlink:actuate="onLoad" xlink:show="other" /><linearGradient id="linearGradientF8FBFEEDF5FCDEEDFAD4E7F8E2E5E9"><stop style="stop-color:#F8FBFE;stop-opacity:1;" offset="0.0" id="stopF8FBFE" /><stop style="stop-color:#EDF5FC;stop-opacity:1;" offset="0.25" id="stopEDF5FC" /><stop style="stop-color:#DEEDFA;stop-opacity:1;" offset="0.5" id="stopDEEDFA" /><stop style="stop-color:#D4E7F8;stop-opacity:1;" offset="0.75" id="stopD4E7F8" /><stop style="stop-color:#E2E5E9;stop-opacity:1;" offset="1.0" id="stopE2E5E9" /></linearGradient><linearGradient xmlns:xlink="http://www.w3.org/1999/xlink" xlink:href="#linearGradientFAFBFCFFFFCC" id="linearGradientFAFBFCFFFFCC_888406576" x1="0" y1="180.0" x2="0" y2="240.0" gradientUnits="userSpaceOnUse" xlink:type="simple" xlink:actuate="onLoad" xlink:show="other" /><linearGradient id="linearGradientFAFBFCFFFFCC"><stop style="stop-color:#FAFBFC;stop-opacity:1;" offset="0.0" id="stopFAFBFC" /><stop style="stop-color:#FFFFCC;stop-opacity:1;" offset="1.0" id="stopFFFFCC" /></linearGradient><linearGradient xmlns:xlink="http://www.w3.org/1999/xlink" xlink:href="#linearGradientF8FBFEEDF5FCDEEDFAD4E7F8E2E5E9" id="linearGradientF8FBFEEDF5FCDEEDFAD4E7F8E2E5E9_1911982794" x1="0" y1="330.0" x2="0" y2="436.0" gradientUnits="userSpaceOnUse" xlink:type="simple" xlink:actuate="onLoad" xlink:show="other" /><linearGradient xmlns:xlink="http://www.w3.org/1999/xlink" xlink:href="#linearGradientFAFBFCFFFFCC" id="linearGradientFAFBFCFFFFCC_745384925" x1="0" y1="310.0" x2="0" y2="370.0" gradientUnits="userSpaceOnUse" xlink:type="simple" xlink:actuate="onLoad" xlink:show="other" /><linearGradient xmlns:xlink="http://www.w3.org/1999/xlink" xlink:href="#linearGradientFF6666FF9696FFB6B6" id="linearGradientFF6666FF9696FFB6B6_1087208105" x1="0" y1="41.0" x2="0" y2="76.0" gradientUnits="userSpaceOnUse" xlink:type="simple" xlink:actuate="onLoad" xlink:show="other" /><linearGradient id="linearGradientFF6666FF9696FFB6B6"><stop style="stop-color:#FF6666;stop-opacity:1;" offset="0.0" id="stopFF6666" /><stop style="stop-color:#FF9696;stop-opacity:1;" offset="0.5" id="stopFF9696" /><stop style="stop-color:#FFB6B6;stop-opacity:1;" offset="1.0" id="stopFFB6B6" /></linearGradient><linearGradient xmlns:xlink="http://www.w3.org/1999/xlink" xlink:href="#linearGradientF8FBFEEDF5FCDEEDFAD4E7F8E2E5E9" id="linearGradientF8FBFEEDF5FCDEEDFAD4E7F8E2E5E9_1421608194" x1="0" y1="30.0" x2="0" y2="136.0" gradientUnits="userSpaceOnUse" xlink:type="simple" xlink:actuate="onLoad" xlink:show="other" /><linearGradient xmlns:xlink="http://www.w3.org/1999/xlink" xlink:href="#linearGradientF8FBFEEDF5FCDEEDFAD4E7F8E2E5E9" id="linearGradientF8FBFEEDF5FCDEEDFAD4E7F8E2E5E9_299464069" x1="0" y1="190.0" x2="0" y2="296.0" gradientUnits="userSpaceOnUse" xlink:type="simple" xlink:actuate="onLoad" xlink:show="other" /><linearGradient xmlns:xlink="http://www.w3.org/1999/xlink" xlink:href="#linearGradientFAFBFCFFFFCC" id="linearGradientFAFBFCFFFFCC_1345001248" x1="0" y1="310.0" x2="0" y2="370.0" gradientUnits="userSpaceOnUse" xlink:type="simple" xlink:actuate="onLoad" xlink:show="other" /><linearGradient xmlns:xlink="http://www.w3.org/1999/xlink" xlink:href="#linearGradientFAFBFCFFFFCC" id="linearGradientFAFBFCFFFFCC_2073573310" x1="0" y1="187.0" x2="0" y2="247.0" gradientUnits="userSpaceOnUse" xlink:type="simple" xlink:actuate="onLoad" xlink:show="other" /></defs></svg>
